PathFileType	4	(x/y/z)	S09_M20_T19
DataRate	CameraRate	NumFrames	NumMarkers	Units	OrigDataRate	OrigDataStartFrame	OrigNumFrames
240	240	6	51	mm	240	279	556
Frame#	Time	Sternum			R.Acromium			L.Acromium			Top.Head			R.ASIS			L.ASIS			R.PSIS			L.PSIS			R.Great.Tro			L.Great.Tro			R.Iliac.Crest			L.Iliac.Crest			V.Sacral			R.Thigh.Upper.Post			R.Thigh.Lower.Ant			R.Thigh.Lower.Post			R.Thigh.Upper.Ant			R.Knee.Lat			R.Knee.Med			R.Shank.Upper.Post			R.Shank.Lower.Ant			R.Shank.Lower.Post			R.Shank.Upper.Ant			R.Ankle.Lat			R.Ankle.Med			R.Heel.Upper			R.Heel.Med			R.Heel.Lat			R.Toe.Lat			R.Toe.Med			R.Toe.Tip			L.Thigh.Upper.Post			L.Thigh.Lower.Ant			L.Thigh.Lower.Post			L.Thigh.Upper.Ant			L.Knee.Lat			L.Knee.Med			L.Shank.Upper.Post			L.Shank.Lower.Ant			L.Shank.Lower.Post			L.Shank.Upper.Ant			L.Ankle.Lat			L.Ankle.Med			L.Heel.Upper			L.Heel.Med			L.Heel.Lat			L.Toe.Lat			L.Toe.Med			L.Toe.Tip			Cervical.Spine			Back			
		X1	Y1	Z1	X2	Y2	Z2	X3	Y3	Z3	X4	Y4	Z4	X5	Y5	Z5	X6	Y6	Z6	X7	Y7	Z7	X8	Y8	Z8	X9	Y9	Z9	X10	Y10	Z10	X11	Y11	Z11	X12	Y12	Z12	X13	Y13	Z13	X14	Y14	Z14	X15	Y15	Z15	X16	Y16	Z16	X17	Y17	Z17	X18	Y18	Z18	X19	Y19	Z19	X20	Y20	Z20	X21	Y21	Z21	X22	Y22	Z22	X23	Y23	Z23	X24	Y24	Z24	X25	Y25	Z25	X26	Y26	Z26	X27	Y27	Z27	X28	Y28	Z28	X29	Y29	Z29	X30	Y30	Z30	X31	Y31	Z31	X32	Y32	Z32	X33	Y33	Z33	X34	Y34	Z34	X35	Y35	Z35	X36	Y36	Z36	X37	Y37	Z37	X38	Y38	Z38	X39	Y39	Z39	X40	Y40	Z40	X41	Y41	Z41	X42	Y42	Z42	X43	Y43	Z43	X44	Y44	Z44	X45	Y45	Z45	X46	Y46	Z46	X47	Y47	Z47	X48	Y48	Z48	X49	Y49	Z49	X50	Y50	Z50	X51	Y51	Z51	

279	1.1583	686.06	1208.5	300.18	546.62	1445.3	456.51	527.52	1436.4	145.23	559.23	1740.7	293.84	666.55	1039.4	411.44	650.08	1035.1	164.65	439.63	1045.6	343.57	442.99	1039.3	253.91	593.37	949.61	487.42	594.86	936.3	97.51	572.46	1112.4	461.17	529.71	1114.8	134.14	424.28	1006.1	297.21	576.07	694.84	448.33	636.61	592.72	396.7	561.55	605.94	418.69	643.69	678.02	429.52	604.86	519.47	388.45	582.78	517.91	268.16	508.04	352.92	397.19	564.93	285.6	374.78	492.71	278.73	384.15	572.89	357.74	390.43	494.96	90.066	354.35	510.42	109.44	264.3	423.34	79.811	302.26	432.17	49.701	271.23	427.32	47.102	335.8	589.98	37.732	379.25	630.64	52.435	270.75	680.15	65.867	314.08	646.92	675.67	131.62	760.94	620.6	124.34	697.41	600.38	146.7	711.75	693.53	105.77	773.18	542.66	133.93	796.38	555.43	272.64	739.19	409.61	124.93	811.04	325.65	128.51	747.04	332.84	129.92	802.62	403.14	124.31	782.28	134.58	144.8	816.49	133.53	232.61	727.4	87.158	209	748.5	65.164	238.46	727.09	59.159	181.06	886.07	75.048	97.059	941.17	86.875	194.95	978.01	108.14	128.56	460.57	1485.7	314.74	425.36	1214.9	306.13
280	1.1625	690.38	1207.8	300.7	550.75	1444.9	456.57	532.29	1435.8	145.16	563.71	1740.2	293.64	670.28	1038.8	411.96	655.12	1034.8	164.99	443.63	1045.5	342.84	447.41	1039.2	253.18	596.43	949.19	487.49	599.75	935.96	97.664	575.93	1111.8	461.35	534.96	1114.6	134.01	428.43	1006	296.4	577.99	694.71	448.38	638.14	592.24	397.01	563.1	605.87	418.81	645.55	677.52	429.78	606.04	519.13	388.67	584.2	517.61	268.31	508.69	352.88	397.19	565.44	285.39	374.84	493.17	278.74	384.1	573.62	357.51	390.55	495.01	90.102	354.21	510.51	109.33	264.16	423.37	79.819	302.16	432.19	49.67	271.18	427.34	47.156	335.73	589.98	37.741	379.24	630.66	52.228	270.68	680.2	65.664	314.01	651.72	675.27	132.17	765.79	620.34	125.1	702.36	600.04	147.4	716.56	693.14	106.28	778.75	542.67	134.64	801.13	555.37	273.52	747.7	408.88	124.99	821.36	326.51	128.77	757.18	332.28	129.8	811.3	403.79	124.74	797	134.56	144.45	830.76	134.27	232.39	742.84	86.011	208.26	764.26	64.552	237.87	743.29	57.905	180.38	902.34	77.03	97.303	956.63	90.385	195.57	993.33	112.25	129.31	465.04	1485.5	314.53	429.6	1214.6	305.85
281	1.1667	694.72	1207.1	301.22	554.9	1444.4	456.62	537.08	1435.2	145.07	568.19	1739.8	293.43	674	1038.2	412.48	660.18	1034.4	165.33	447.65	1045.4	342.09	451.85	1039	252.43	599.5	948.76	487.56	604.62	935.55	97.835	579.39	1111.3	461.51	540.21	1114.3	133.87	432.61	1005.9	295.57	579.96	694.56	448.44	639.72	591.74	397.33	564.7	605.78	418.93	647.44	677.02	430.04	607.26	518.78	388.9	585.68	517.31	268.46	509.37	352.85	397.19	565.98	285.18	374.91	493.66	278.75	384.06	574.38	357.28	390.67	495.07	90.137	354.07	510.61	109.23	264.03	423.4	79.833	302.07	432.21	49.644	271.12	427.36	47.213	335.67	589.98	37.746	379.24	630.69	52.03	270.61	680.25	65.458	313.95	656.48	674.79	132.77	770.6	620.01	125.85	707.29	599.64	148.13	721.32	692.68	106.81	784.27	542.65	135.35	805.91	555.28	274.38	756.15	408.21	125.09	831.54	327.43	129.04	767.22	331.81	129.72	819.87	404.47	125.17	811.57	134.72	144.12	844.88	135.17	232.19	758.16	85.06	207.54	779.87	64.126	237.29	759.35	56.869	179.72	918.42	79.226	97.557	971.86	94.043	196.2	1008.4	116.52	130.08	469.53	1485.2	314.3	433.84	1214.2	305.54
282	1.1708	699.07	1206.3	301.74	559.04	1443.8	456.67	541.88	1434.6	144.98	572.66	1739.3	293.21	677.73	1037.6	413	665.27	1033.9	165.66	451.68	1045.3	341.32	456.31	1038.8	251.66	602.59	948.33	487.63	609.47	935.05	98.02	582.84	1110.7	461.66	545.46	1114	133.72	436.79	1005.8	294.73	581.95	694.39	448.51	641.35	591.24	397.66	566.35	605.67	419.04	649.38	676.5	430.31	608.53	518.42	389.12	587.23	516.99	268.62	510.09	352.82	397.19	566.54	284.97	374.98	494.17	278.76	384.03	575.17	357.04	390.8	495.12	90.171	353.94	510.72	109.13	263.9	423.43	79.852	301.98	432.23	49.624	271.06	427.38	47.274	335.61	589.98	37.747	379.23	630.73	51.839	270.55	680.3	65.248	313.89	661.21	674.24	133.42	775.38	619.61	126.58	712.21	599.17	148.9	726.05	692.15	107.33	789.76	542.59	136.06	810.75	555.15	275.22	764.51	407.6	125.25	841.59	328.42	129.3	777.16	331.42	129.7	828.34	405.18	125.6	825.99	135.06	143.81	858.83	136.21	232.02	773.35	84.299	206.86	795.34	63.878	236.74	775.28	56.048	179.09	934.28	81.629	97.819	986.86	97.835	196.84	1023.2	120.95	130.85	474.01	1484.9	314.06	438.08	1213.8	305.2
283	1.175	703.45	1205.5	302.25	563.2	1443.2	456.71	546.7	1433.9	144.87	577.15	1738.7	292.98	681.45	1036.9	413.5	670.37	1033.4	166	455.72	1045.1	340.53	460.79	1038.6	250.89	605.71	947.89	487.69	614.3	934.47	98.217	586.29	1110.2	461.79	550.71	1113.6	133.56	440.99	1005.7	293.88	583.99	694.21	448.59	643.03	590.73	397.99	568.04	605.55	419.16	651.36	675.98	430.58	609.85	518.06	389.35	588.84	516.66	268.78	510.84	352.79	397.19	567.12	284.75	375.05	494.72	278.78	383.99	576	356.79	390.92	495.18	90.206	353.81	510.84	109.05	263.77	423.46	79.879	301.88	432.25	49.61	271	427.4	47.339	335.55	589.99	37.745	379.22	630.77	51.655	270.49	680.36	65.034	313.83	665.91	673.63	134.12	780.14	619.14	127.3	717.11	598.65	149.7	730.76	691.55	107.86	795.21	542.5	136.75	815.63	555	276.03	772.8	407.02	125.45	851.49	329.45	129.55	786.99	331.11	129.72	836.7	405.91	126.03	840.26	135.57	143.53	872.63	137.38	231.88	788.39	83.718	206.22	810.65	63.799	236.21	791.06	55.433	178.49	949.92	84.229	98.089	1001.6	101.75	197.46	1037.8	125.51	131.62	478.5	1484.5	313.82	442.33	1213.4	304.83
284	1.1792	707.84	1204.6	302.75	567.36	1442.6	456.74	551.54	1433.2	144.76	581.63	1738.1	292.74	685.19	1036.3	414	675.49	1032.9	166.33	459.77	1044.9	339.74	465.29	1038.4	250.1	608.84	947.44	487.75	619.11	933.83	98.422	589.75	1109.6	461.91	555.94	1113.2	133.39	445.21	1005.5	293.02	586.07	694.01	448.67	644.76	590.21	398.32	569.78	605.42	419.26	653.38	675.45	430.86	611.22	517.68	389.57	590.53	516.31	268.94	511.63	352.76	397.2	567.72	284.53	375.11	495.29	278.81	383.96	576.86	356.54	391.04	495.24	90.243	353.68	510.97	108.96	263.64	423.5	79.912	301.79	432.27	49.602	270.95	427.43	47.409	335.48	590	37.74	379.21	630.82	51.476	270.42	680.43	64.814	313.78	670.59	672.95	134.86	784.87	618.61	128.01	722	598.07	150.52	735.44	690.89	108.39	800.63	542.37	137.44	820.57	554.82	276.81	781	406.49	125.71	861.25	330.54	129.81	796.71	330.86	129.79	844.94	406.67	126.47	854.35	136.24	143.29	886.26	138.68	231.78	803.29	83.309	205.63	825.81	63.879	235.72	806.68	55.016	177.92	965.32	87.015	98.366	1016.1	105.78	198.08	1052.1	130.21	132.39	482.99	1484.2	313.56	446.58	1212.9	304.43
